<svg width="1680" height="617" viewBox="0 0 1680 617" fill="none" xmlns="http://www.w3.org/2000/svg">
<path d="M473.965 457.425V252.302C473.965 223.906 455.214 205.854 420.966 205.854C387.361 205.854 367.304 226.506 367.304 252.952V457.425H313.661V252.302C313.661 223.906 295.553 205.854 260.643 205.854C227.019 205.854 207 226.506 207 252.952V457.425H154V165.239H201.191L203.139 192.316C221.229 171.014 239.98 158.775 278.751 158.775C310.444 158.775 336.291 176.177 349.215 197.479C366.017 175.546 393.188 158.775 437.787 158.775C490.143 158.775 526.984 196.178 526.984 247.789V457.464H473.965V457.425ZM809.41 283.261L769.977 323.895H632.284C633.571 365.83 660.742 416.81 718.908 416.81C750.601 416.81 775.161 407.115 797.13 388.414L785.493 445.818C768.69 456.144 745.417 463.889 711.15 463.889C638.112 463.889 577.336 402.602 577.336 311.657C577.336 214.88 640.042 158.775 701.462 158.775C770.621 158.775 810.053 214.23 810.053 269.072C810.053 272.954 810.053 279.398 809.41 283.261ZM703.41 204.573C672.379 204.573 641.348 238.113 634.877 280.048H755.748C756.41 277.467 756.41 272.954 756.41 270.372C756.41 239.395 735.71 204.573 703.41 204.573ZM1016.85 208.436H936.697V378.738C936.697 401.321 952.875 414.86 974.2 414.86C985.175 414.86 994.219 413.559 1001.98 409.696L992.951 457.425C987.123 460.026 979.402 461.288 967.747 461.288C921.2 461.288 884.378 431.649 884.378 378.107V208.417H835.257V165.201H884.378V109.727L936.716 82V165.22H1024.66L1016.85 208.436ZM1206.73 207.786C1164.73 207.786 1118.18 236.163 1118.18 308.426V457.425H1064.54V165.239H1114.98L1116.93 209.086C1130.5 175.527 1164.12 161.338 1203.55 161.338L1211.95 207.786H1206.73ZM1366.17 468C1277.05 468 1206.37 397.497 1206.37 308.521C1206.37 219.565 1277.05 149.042 1366.17 149.042C1455.33 149.042 1526 219.565 1526 308.521C1526 397.477 1455.32 468 1366.17 468ZM1410.29 179.121C1418.38 190.824 1426.07 204.745 1431.91 219.125C1441.4 215.071 1449.93 210.138 1457.14 205.644C1443.53 193.415 1427.55 184.37 1410.29 179.121ZM1469.71 218.245C1460.74 224.078 1449.89 229.91 1437.76 235.302C1446.29 258.211 1451.25 280.679 1452.59 299.553H1502.54C1500.78 268.097 1489.12 239.796 1469.71 218.245ZM1385.55 173.308C1382.16 172.452 1378.69 172.003 1375.2 171.97V234.863C1388.23 233.524 1402.65 230.369 1415.72 225.875C1407.79 207.118 1397.65 189.474 1385.55 173.308ZM1421.54 241.574C1405.77 247.866 1389.56 251.9 1375.18 253.258V299.534H1434.6C1433.24 280.22 1428.73 260.888 1421.54 241.574ZM1357.15 171.932C1354 171.932 1350.4 172.39 1346.8 173.27C1335.09 189.008 1324.74 206.543 1316.63 225.856C1329.68 230.35 1344.08 233.505 1357.15 234.843V171.932ZM1452.59 317.509C1451.73 335.923 1446.75 358.832 1437.74 381.759C1449.91 387.132 1460.72 392.984 1469.73 398.835C1489.09 377.265 1500.8 348.965 1502.58 317.509H1452.59ZM1275.19 205.644C1282.42 210.119 1290.97 215.071 1300.42 219.125C1306.28 204.745 1313.93 190.824 1322.03 179.121C1304.79 184.387 1288.82 193.43 1275.21 205.644H1275.19ZM1375.18 317.509V363.784C1389.58 365.123 1405.77 369.158 1421.54 375.449C1428.75 355.696 1433.27 335.923 1434.6 317.509H1375.18ZM1357.17 253.258C1342.75 251.92 1326.54 247.866 1310.77 241.594C1303.56 260.888 1299.06 280.22 1297.71 299.534H1357.15L1357.17 253.258ZM1431.45 397.477C1426 411.791 1418.9 425.364 1410.31 437.902C1427.56 432.648 1443.53 423.611 1457.14 411.398C1449.01 405.937 1440.41 401.277 1431.45 397.477ZM1262.64 218.245C1243.26 239.796 1231.57 268.097 1229.77 299.553H1279.72C1281.08 280.679 1286.02 258.211 1294.59 235.302C1283.54 230.464 1272.86 224.762 1262.64 218.245ZM1375.2 382.218V445.13C1378.34 445.13 1381.93 444.671 1385.55 443.753C1397.26 428.016 1407.61 409.582 1415.24 390.746C1402.22 386.451 1388.8 383.593 1375.2 382.218ZM1357.18 317.528H1297.75C1299.11 335.942 1303.6 355.715 1310.8 375.468C1326.56 369.177 1342.77 365.142 1357.17 363.803L1357.18 317.528ZM1357.18 382.218C1344.13 383.557 1330.62 386.253 1317.09 390.746C1324.76 409.62 1335.11 428.035 1346.8 443.753C1350.4 444.633 1354 445.13 1357.15 445.13V382.218H1357.18ZM1279.75 317.528H1229.8C1231.61 348.965 1243.3 377.284 1262.64 398.854C1271.65 393.003 1282.47 387.151 1294.62 381.778C1285.62 358.851 1280.65 335.942 1279.75 317.528ZM1300.89 397.497C1291.93 401.264 1283.34 405.926 1275.25 411.418C1288.85 423.637 1304.82 432.681 1322.07 437.94C1313.47 425.4 1306.35 411.819 1300.89 397.497ZM1479.73 142.177C1479.73 129.672 1489.88 119.518 1502.56 119.518C1515.15 119.518 1525.26 129.652 1525.26 142.177C1525.26 154.817 1515.17 164.971 1502.56 164.971C1489.88 164.971 1479.73 154.836 1479.73 142.177ZM1521.28 142.177C1521.28 131.909 1512.93 123.514 1502.56 123.514C1492.12 123.514 1483.72 131.909 1483.72 142.177C1483.72 152.561 1492.12 160.975 1502.56 160.975C1512.91 160.994 1521.28 152.58 1521.28 142.177ZM1497.74 143.707V155.257H1493.52V128.543H1502.19C1507.1 128.543 1512.19 129.863 1512.19 135.905C1512.19 138.984 1510.3 141.413 1506.75 142.139V142.254C1510.43 142.981 1510.87 144.625 1511.29 147.513C1511.64 150.056 1511.94 152.828 1512.86 155.257H1507.51C1507.21 153.727 1506.77 152.044 1506.61 150.476C1506.33 148.163 1506.33 146.078 1505.1 144.778C1504.09 143.688 1502.69 143.822 1501.24 143.688L1497.74 143.707ZM1502.16 139.539C1506.05 139.405 1507.01 137.779 1507.01 135.714C1507.01 133.706 1506.09 132.693 1502.74 132.693H1497.71V139.539H1502.16Z" fill="#056C34"/>
</svg>
