<?xml version="1.0" encoding="utf-8"?>
<!-- Generator: Adobe Illustrator 23.0.3, SVG Export Plug-In . SVG Version: 6.00 Build 0)  -->
<svg version="1.1" id="Слой_1" xmlns="http://www.w3.org/2000/svg" xmlns:xlink="http://www.w3.org/1999/xlink" x="0px" y="0px"
	 viewBox="0 0 430 160" style="enable-background:new 0 0 430 160;" xml:space="preserve">
<style type="text/css">
	.st0{fill:none;stroke:#FFFFFF;stroke-width:2;stroke-miterlimit:10;}
	.st1{fill:#FFFFFF;}
</style>
<g>
	<path class="st0" d="M34.7,41.3c17.7-32.8,342.5-40.8,351-19.5C400,57.9,401.1,109.6,388,133c-7.1,12.6-311.7,27.8-332,6.7
		C45.3,128.5,27.2,55.1,34.7,41.3"/>
	<polygon class="st1" points="223.3,100 223.3,92.8 221.2,92.8 221.2,102.4 223.4,102.4 227.6,95.2 227.6,102.4 229.7,102.4 
		229.7,92.8 227.4,92.8 	"/>
	<polygon class="st1" points="237.1,99.4 233.9,92.8 232,92.8 232,102.4 233.2,102.4 233.2,96 236.4,102.6 236.9,102.6 239.8,96.1 
		239.8,102.4 241.9,102.4 241.9,92.8 240.1,92.8 	"/>
	<path class="st1" d="M245.5,100c-0.3,0-0.6,0.1-0.9,0.4c-0.2,0.2-0.4,0.5-0.4,0.9c0,0.3,0.1,0.6,0.4,0.9c0.2,0.2,0.5,0.4,0.9,0.4
		s0.6-0.1,0.9-0.4c0.2-0.2,0.4-0.5,0.4-0.9c0-0.3-0.1-0.6-0.4-0.9C246.1,100.2,245.9,100,245.5,100z"/>
	<polygon class="st1" points="263.5,99.8 257.8,89.2 256.1,89.2 256.1,102.4 257.5,102.4 257.5,92.8 262.7,102.6 263.3,102.6 
		268.7,92.8 268.7,102.4 270.9,102.4 270.9,89.2 269.2,89.2 	"/>
	<path class="st1" d="M275.2,100c-0.3,0-0.6,0.1-0.9,0.4c-0.2,0.2-0.4,0.5-0.4,0.9c0,0.3,0.1,0.6,0.4,0.9c0.2,0.2,0.5,0.4,0.9,0.4
		c0.3,0,0.6-0.1,0.9-0.4c0.2-0.2,0.4-0.5,0.4-0.9c0-0.3-0.1-0.6-0.4-0.9C275.8,100.2,275.5,100,275.2,100z"/>
	<polygon class="st1" points="285.8,102.4 288,102.4 288,90.7 294,90.7 294,89.2 285.8,89.2 	"/>
	<path class="st1" d="M303.5,94.1c-0.4-0.5-0.9-0.8-1.6-1.1c-0.6-0.3-1.3-0.4-2-0.4c-0.8,0-1.5,0.1-2.1,0.4s-1.1,0.6-1.6,1.1
		c-0.4,0.5-0.8,1-1,1.6s-0.4,1.2-0.4,1.9c0,0.6,0.1,1.3,0.4,1.9c0.2,0.6,0.6,1.1,1,1.6s1,0.8,1.6,1.1c0.6,0.3,1.3,0.4,2.1,0.4
		c0.7,0,1.4-0.1,2-0.4s1.1-0.6,1.6-1.1c0.4-0.5,0.8-1,1-1.6s0.3-1.2,0.3-1.9s-0.1-1.3-0.3-1.9C304.3,95.1,303.9,94.5,303.5,94.1z
		 M302.6,97.6c0,0.8-0.1,1.4-0.3,1.9c-0.2,0.5-0.4,0.9-0.6,1.1c-0.3,0.3-0.5,0.4-0.8,0.5c-0.6,0.2-1.2,0.2-1.9,0
		c-0.3-0.1-0.6-0.3-0.8-0.5c-0.3-0.3-0.5-0.6-0.7-1.1s-0.3-1.1-0.3-1.9s0.1-1.5,0.3-2c0.2-0.5,0.4-0.9,0.7-1.1
		c0.3-0.3,0.5-0.4,0.8-0.5s0.6-0.1,0.9-0.1s0.6,0,0.9,0.1s0.6,0.3,0.8,0.5c0.3,0.3,0.5,0.6,0.6,1.1
		C302.5,96.1,302.6,96.8,302.6,97.6z"/>
	<path class="st1" d="M314.5,94c-0.4-0.4-0.9-0.8-1.4-1s-1.1-0.4-1.8-0.4c-1.2,0-2,0.3-2.6,1v-0.8h-2.1v14.1h2.1v-5.4
		c0,0,0,0.1,0.1,0.1c0.2,0.2,0.5,0.4,0.8,0.6c0.3,0.1,0.6,0.2,0.9,0.3c0.3,0.1,0.6,0.1,0.9,0.1c0.6,0,1.2-0.1,1.8-0.4
		c0.5-0.2,1-0.6,1.4-1s0.7-1,0.9-1.6c0.2-0.6,0.3-1.3,0.3-2s-0.1-1.4-0.3-2C315.2,94.9,314.9,94.4,314.5,94z M310.1,94.2
		c0.3-0.1,0.6-0.2,0.9-0.2s0.7,0.1,1,0.2s0.6,0.3,0.8,0.6c0.2,0.3,0.4,0.6,0.6,1.1c0.1,0.5,0.2,1,0.2,1.6c0,0.7-0.1,1.2-0.2,1.7
		c-0.1,0.4-0.3,0.8-0.6,1.1c-0.2,0.3-0.5,0.5-0.8,0.6c-0.6,0.2-1.2,0.3-1.8,0c-0.3-0.1-0.5-0.3-0.7-0.5s-0.4-0.5-0.5-0.9
		s-0.2-0.8-0.2-1.2v-1.6c0-0.4,0.1-0.7,0.2-1s0.3-0.6,0.5-0.8C309.6,94.6,309.8,94.4,310.1,94.2z"/>
	<path class="st1" d="M323.9,97.2c-0.4-0.2-0.8-0.3-1.3-0.3c-0.4,0-0.8-0.1-1.1-0.1h-1.9v-4.1h-2.1v9.6h5c0.4,0,0.7-0.1,1.1-0.2
		s0.7-0.3,0.9-0.5c0.3-0.2,0.5-0.5,0.7-0.8s0.3-0.7,0.3-1.1c0-0.7-0.2-1.2-0.5-1.6S324.3,97.4,323.9,97.2z M323.2,99.7
		c0,0.5-0.1,0.8-0.4,1s-0.7,0.3-1.1,0.3h-2.1v-3h1.8c0.1,0,0.3,0,0.5,0s0.4,0.1,0.6,0.2s0.4,0.3,0.5,0.5
		C323.2,99,323.2,99.3,323.2,99.7z"/>
	<path class="st1" d="M333.6,99.8l-2.2-2.9l3.9-4.1h-1.9l-4.1,4.2v-4.2h-2.1v9.6h2.1V99l0.7-0.7l3.1,4.1h2.5l-0.4-0.4
		C335.2,101.9,333.7,99.9,333.6,99.8z"/>
	<path class="st1" d="M345.2,94.1c-0.4-0.5-0.9-0.8-1.6-1.1c-0.6-0.3-1.3-0.4-2-0.4c-0.8,0-1.5,0.1-2.1,0.4s-1.1,0.6-1.6,1.1
		c-0.4,0.5-0.8,1-1,1.6s-0.4,1.2-0.4,1.9c0,0.6,0.1,1.3,0.4,1.9c0.2,0.6,0.6,1.1,1,1.6s1,0.8,1.6,1.1c0.6,0.3,1.3,0.4,2.1,0.4
		c0.7,0,1.4-0.1,2-0.4s1.1-0.6,1.6-1.1c0.4-0.5,0.8-1,1-1.6s0.3-1.2,0.3-1.9s-0.1-1.3-0.3-1.9C346,95.1,345.6,94.5,345.2,94.1z
		 M344.3,97.6c0,0.8-0.1,1.4-0.3,1.9c-0.2,0.5-0.4,0.9-0.6,1.1c-0.3,0.3-0.5,0.4-0.8,0.5c-0.6,0.2-1.2,0.2-1.9,0
		c-0.3-0.1-0.6-0.3-0.8-0.5c-0.3-0.3-0.5-0.6-0.7-1.1s-0.3-1.1-0.3-1.9s0.1-1.5,0.3-2c0.2-0.5,0.4-0.9,0.7-1.1
		c0.3-0.3,0.5-0.4,0.8-0.5s0.6-0.1,0.9-0.1s0.6,0,0.9,0.1s0.6,0.3,0.8,0.5c0.3,0.3,0.5,0.6,0.6,1.1
		C344.2,96.1,344.3,96.8,344.3,97.6z"/>
	<polygon class="st1" points="348.3,102.4 350.4,102.4 350.4,94.1 354.8,94.1 354.8,92.8 348.3,92.8 	"/>
	<path class="st1" d="M363.9,94.1c-0.4-0.5-0.9-0.8-1.6-1.1c-0.6-0.3-1.3-0.4-2-0.4c-0.8,0-1.5,0.1-2.1,0.4s-1.1,0.6-1.6,1.1
		c-0.4,0.5-0.8,1-1,1.6s-0.4,1.2-0.4,1.9c0,0.6,0.1,1.3,0.4,1.9c0.2,0.6,0.6,1.1,1,1.6s1,0.8,1.6,1.1c0.6,0.3,1.3,0.4,2.1,0.4
		c0.7,0,1.4-0.1,2-0.4s1.1-0.6,1.6-1.1c0.4-0.5,0.8-1,1-1.6s0.3-1.2,0.3-1.9s-0.1-1.3-0.3-1.9S364.3,94.5,363.9,94.1z M363,97.6
		c0,0.8-0.1,1.4-0.3,1.9c-0.2,0.5-0.4,0.9-0.6,1.1c-0.3,0.3-0.5,0.4-0.8,0.5c-0.6,0.2-1.2,0.2-1.9,0c-0.3-0.1-0.6-0.3-0.8-0.5
		c-0.3-0.3-0.5-0.6-0.7-1.1s-0.3-1.1-0.3-1.9s0.1-1.5,0.3-2c0.2-0.5,0.4-0.9,0.7-1.1c0.3-0.3,0.5-0.4,0.8-0.5s0.6-0.1,0.9-0.1
		s0.6,0,0.9,0.1s0.6,0.3,0.8,0.5c0.3,0.3,0.5,0.6,0.6,1.1C362.9,96.1,363,96.8,363,97.6z"/>
	<polygon class="st1" points="195.8,51.7 193.5,51.7 184.3,86.3 184.3,86.3 184.3,86.3 184.3,86.3 184.3,86.3 175.1,51.7 
		172.9,51.7 159.3,102.4 161.8,102.4 172.9,60.9 182.2,95.5 184.4,95.5 193.6,60.9 204.7,102.4 209.3,102.4 	"/>
	<path class="st1" d="M128.9,52.9c-13.8,0-25.1,11.3-25.1,25.1s11.3,25.1,25.1,25.1S154,91.8,154,78S142.8,52.9,128.9,52.9z
		 M112.9,61.9c3.8-3.8,9.5-5.1,14.9-5.1c0.2,0,0.4,0,0.6,0c5.7,0.1,11.1,2.5,15.2,6.6c8.5,8.5,9.5,22.4,1.5,30.5
		c-8.1,8.1-22.2,7.2-30.7-1.3c-4.1-4.1-6.5-9.5-6.6-15.2C107.6,71.7,109,65.8,112.9,61.9z"/>
	<path class="st1" d="M90.8,73.4L85,51.7h-2.2l-1.1,4.2C79,65.9,76.3,76,73.6,86L70,99.1h-5v3.3h37.5v-3.3h-4.8
		C95.3,90.5,93,82,90.8,73.4z M72.6,99.1c3.3-12.2,6.9-26,10.1-38.1L93,99.1H72.6z"/>
	<polygon class="st1" points="365.5,51.7 362.6,51.7 356.4,62.5 350.7,51.7 346.7,51.7 354.4,66.2 346.7,79.7 349.7,79.7 
		355.8,68.9 361.5,79.7 365.5,79.7 357.9,65.3 	"/>
	<polygon class="st1" points="232.4,65.6 225,51.7 221.2,51.7 230.4,69.1 224.3,79.7 227.3,79.7 243.2,51.7 240.3,51.7 	"/>
	<path class="st1" d="M260.4,65.8c-1.1,1.2-2.8,1.9-4.8,1.9c-3.2,0-5.7-1.9-5.7-4.2V51.7h-3.8v11.7c0,1.6,1,3.2,2.7,4.3
		c1.7,1.2,4,1.8,6.3,1.8l0,0c1.9,0,3.7-0.4,5.2-1.2v11.3h3.8v-28h-3.8v14.2H260.4z"/>
	<polygon class="st1" points="287.7,53.6 287.7,51.7 269.8,51.7 269.8,79.7 287.7,79.7 287.7,77.8 273.5,77.8 273.5,63.5 
		285.6,63.5 285.6,61.6 273.5,61.6 273.5,53.6 	"/>
	<polygon class="st1" points="311.6,67.5 297,67.5 297,51.7 293.3,51.7 293.3,79.7 297,79.7 297,69.4 311.6,69.4 311.6,79.7 
		315.3,79.7 315.3,51.7 311.6,51.7 	"/>
	<g>
		<rect x="339.2" y="51.7" class="st1" width="3.7" height="28"/>
		<path class="st1" d="M325.6,62c-0.3,0-0.7,0-1,0V51.7h-3.8v27.8l0.6,0.1c1.3,0.3,2.7,0.4,4.1,0.4c7.3,0,11.4-4.1,11.4-9.1
			C337,66.1,333,62,325.6,62z M325.6,78.2c-0.3,0-0.7,0-1,0V63.9c0.3,0,0.7,0,1,0c5.3,0,7.7,3.2,7.7,7.2
			C333.3,75,330.9,78.2,325.6,78.2z"/>
	</g>
</g>
</svg>
