<?xml version="1.0" encoding="UTF-8" standalone="no"?>
<!-- Created with Inkscape (http://www.inkscape.org/) -->

<svg
   width="15.191385mm"
   height="40.62455mm"
   viewBox="0 0 15.191385 40.62455"
   version="1.1"
   id="svg1"
   xml:space="preserve"
   xmlns="http://www.w3.org/2000/svg"
   xmlns:svg="http://www.w3.org/2000/svg"><defs
     id="defs1" /><g
     id="layer1"
     transform="translate(-100.8873,-122.57049)"><path
       style="fill:#ff6b35"
       d="m 106.8705,162.84402 v -0.35098 l -0.47625,-0.13822 c -1.44321,-0.41887 -2.75172,-1.26195 -3.70388,-2.38645 -0.86065,-1.01641 -1.47857,-2.32573 -1.71025,-3.62385 -0.11434,-0.64067 -0.12471,-1.83977 -0.0218,-2.5209 0.30908,-2.04546 1.31555,-4.07791 2.75671,-5.56683 0.95718,-0.98891 1.85685,-1.57168 2.99542,-1.94032 l 0.49613,-0.16064 0.002,-0.42333 c 9.5e-4,-0.23284 0.0119,-1.05199 0.0243,-1.82034 0.0277,-1.70804 0.14584,-12.03585 0.14584,-12.74475 l -1e-5,-0.51042 -0.45508,-0.37311 c -0.47808,-0.39196 -0.55792,-0.4863 -0.55792,-0.65922 0,-0.14714 0.0653,-0.24217 0.34765,-0.50591 0.25487,-0.23808 0.46264,-0.59941 0.51846,-0.90167 l 0.0293,-0.15875 h -0.53387 -0.53388 v -0.40217 -0.40217 h 0.53397 0.53397 l -0.0294,-0.19591 c -0.0495,-0.3297 -0.0132,-0.31209 -0.64252,-0.31209 h -0.56856 l 0.0122,-0.39158 0.0122,-0.39158 0.41511,-0.0121 c 0.46814,-0.0137 0.44806,0.0133 0.27736,-0.37263 l -0.0826,-0.18672 h -0.59068 -0.59069 v -0.40217 -0.40217 l 0.39158,-8e-5 0.39159,-9e-5 v -0.34916 c 0,-0.43209 0.10331,-0.66961 0.43255,-0.99448 0.25381,-0.25045 0.56633,-0.42264 1.02944,-0.56721 0.42345,-0.13219 1.31082,-0.14202 1.73417,-0.0192 0.6353,0.18429 1.18763,0.58691 1.39937,1.02008 0.1488,0.3044 0.14854,0.83962 -5.5e-4,1.143 -0.18709,0.38068 -0.58738,0.71163 -1.12507,0.93016 l -0.22643,0.092 0.12683,0.1874 c 0.62603,0.92502 0.86646,2.25789 0.58693,3.25373 -0.1012,0.3605 -0.32267,0.85847 -0.51537,1.15876 l -0.13227,0.20613 0.0702,6.50506 c 0.0386,3.57779 0.0822,7.06871 0.0969,7.75762 l 0.0267,1.25255 0.32259,0.0944 c 1.51142,0.44243 2.9773,1.54988 4.06315,3.06966 1.57425,2.20337 2.24002,4.866 1.79947,7.19661 -0.14391,0.76126 -0.54908,1.78769 -0.97853,2.47892 -1.06562,1.71518 -2.87852,3.02771 -4.76259,3.44808 -0.11581,0.0258 -0.11642,0.0279 -0.11642,0.385 v 0.35903 h -0.40216 -0.40217 v -0.27267 c 0,-0.14997 -0.0203,-0.28521 -0.0451,-0.30053 -0.0248,-0.0153 -0.11052,-0.0156 -0.1905,-5.8e-4 l -0.14542,0.0273 v 0.27325 0.27325 h -0.42333 -0.42334 v -0.27517 c 0,-0.29235 0.008,-0.28296 -0.24341,-0.2921 -0.11475,-0.004 -0.1166,-1.4e-4 -0.12894,0.28152 l -0.0125,0.28575 h -0.40024 -0.40023 z m 2.794,-1.11158 c 2.25702,-0.39132 4.2366,-2.00552 5.11682,-4.1724 0.27332,-0.67285 0.47064,-1.5706 0.47101,-2.14299 1.6e-4,-0.2458 0.007,-0.26558 0.10571,-0.29026 0.058,-0.0146 0.0942,-0.0448 0.0804,-0.0672 -0.0138,-0.0224 -0.0506,-0.031 -0.0816,-0.019 -0.0412,0.0158 -0.0621,-0.0379 -0.0773,-0.1982 -0.0525,-0.55308 -0.12022,-1.11038 -0.13704,-1.12721 -0.0229,-0.0229 -0.18644,0.0317 -1.32927,0.44404 -0.50059,0.18063 -1.01494,0.3537 -1.143,0.38461 -0.65928,0.15915 -1.36071,-0.0386 -1.87425,-0.52846 -0.41965,-0.40028 -0.58047,-0.76959 -0.66086,-1.51761 -0.0421,-0.3922 -0.15039,-0.652 -0.35368,-0.84899 -0.12336,-0.11953 -0.66918,-0.44765 -2.46638,-1.48266 -0.30268,-0.17432 -0.57162,-0.33379 -0.59764,-0.35437 -0.0329,-0.026 -0.0623,0.0389 -0.0966,0.21297 -0.11369,0.5779 -0.50159,1.08912 -1.00864,1.32929 -0.26888,0.12736 -0.316,0.13586 -0.75349,0.13586 -0.44168,0 -0.48174,-0.007 -0.7481,-0.1386 -0.34041,-0.16766 -0.65333,-0.49248 -0.79944,-0.82987 -0.0564,-0.13012 -0.1159,-0.23691 -0.13234,-0.23731 -0.0362,-8.7e-4 -0.30441,0.45577 -0.51741,0.88076 -0.7159,1.42845 -1.07428,3.07685 -0.95378,4.38711 0.14202,1.54442 0.67911,2.8241 1.66725,3.97242 0.89577,1.04098 2.35945,1.8997 3.69311,2.16668 0.80565,0.16128 1.81259,0.17735 2.59655,0.0414 z m -3.75867,-4.39003 0.0122,-0.39158 2.57175,-0.0109 2.57175,-0.0109 v 0.40249 0.4025 h -2.58392 -2.58392 z m 2.22392,-2.74221 c -0.45838,-0.11524 -0.88695,-0.48944 -1.04531,-0.91267 -0.11661,-0.31168 -0.11744,-0.77949 -0.002,-1.08822 0.2069,-0.553 0.80012,-0.96131 1.39666,-0.96131 0.59653,0 1.18976,0.40831 1.39666,0.96131 0.11583,0.30959 0.1147,0.77648 -0.003,1.09012 -0.2473,0.66097 -1.05622,1.08355 -1.74343,0.91077 z m 0.70483,-0.88048 c 0.22177,-0.12826 0.30075,-0.28028 0.30075,-0.57889 0,-0.20458 -0.0209,-0.29757 -0.0871,-0.38848 -0.10244,-0.14049 -0.41359,-0.31002 -0.56902,-0.31002 -0.1519,0 -0.46578,0.16839 -0.5631,0.30208 -0.10249,0.14081 -0.1388,0.44773 -0.0756,0.63918 0.12718,0.38536 0.62053,0.55217 0.99412,0.33613 z m 4.30842,-0.18061 c 1.26078,-0.44809 1.74218,-0.62786 1.77842,-0.6641 0.0695,-0.0695 -0.41296,-1.31905 -0.75546,-1.95668 -0.78587,-1.46308 -1.88727,-2.65889 -3.08128,-3.3454 -0.35491,-0.20406 -1.15354,-0.54927 -1.27071,-0.54927 -0.06,0 -0.0673,0.11007 -0.0648,0.98425 0.002,0.54134 0.002,1.00807 10e-4,1.03717 -10e-4,0.0399 -0.15544,0.0529 -0.62653,0.0529 h -0.62509 l -0.52849,-1.0618 c -0.29067,-0.58399 -0.54075,-1.06963 -0.55573,-1.07921 -0.015,-0.01 -0.1769,0.0314 -0.35983,0.0911 -1.03308,0.33722 -1.94382,0.92157 -2.75618,1.76845 l -0.34925,0.36409 v 0.40362 c 0,0.32256 0.018,0.44184 0.0894,0.59392 0.156,0.33186 0.46645,0.52918 0.82994,0.52751 0.5322,-0.002 0.94328,-0.46055 0.94328,-1.0512 0,-0.0641 0.055,-0.20333 0.1222,-0.30931 0.22197,-0.35002 0.69644,-0.47663 1.07068,-0.28571 0.0954,0.0487 0.47091,0.2605 0.8344,0.47069 0.36348,0.2102 1.01331,0.58409 1.44405,0.83088 1.13775,0.65185 1.46972,1.01137 1.62925,1.76449 0.0344,0.16258 0.063,0.37316 0.0633,0.46797 0.002,0.52563 0.41504,1.02266 0.96316,1.15969 0.2644,0.0661 0.5665,0.0124 1.20374,-0.21412 z m -4.21301,-7.35153 c -0.015,-1.04193 -0.0379,-3.00884 -0.0508,-4.37092 -0.0129,-1.36207 -0.0414,-3.98145 -0.0635,-5.82083 -0.022,-1.83938 -0.0401,-3.7301 -0.0401,-4.20158 l -1.3e-4,-0.85725 h -0.29037 -0.29037 l -0.0277,2.69875 c -0.0152,1.48431 -0.0367,3.2512 -0.0477,3.92641 -0.011,0.67522 -0.0299,2.50402 -0.0421,4.064 -0.0122,1.55999 -0.0335,3.24591 -0.0474,3.7465 l -0.0251,0.91017 0.44816,0.89958 c 0.24649,0.49477 0.46082,0.89959 0.47629,0.89959 0.0155,0 0.0158,-0.85249 7.9e-4,-1.89442 z m 0.21473,-16.42533 c 0.28421,-0.53632 0.37273,-0.88265 0.36517,-1.42875 -0.0138,-0.99689 -0.41744,-1.89033 -1.07544,-2.38041 -0.22911,-0.17064 -0.27498,-0.22603 -0.28648,-0.34599 -0.0327,-0.34057 0.0974,-0.44471 0.60636,-0.48544 0.60858,-0.0487 1.09134,-0.27387 1.32244,-0.61679 0.12523,-0.18584 0.12092,-0.33462 -0.0155,-0.53569 -0.14155,-0.20859 -0.19217,-0.24875 -0.5057,-0.40118 -0.67632,-0.32882 -1.7073,-0.2379 -2.23365,0.19698 -0.15939,0.13169 -0.28205,0.3382 -0.28205,0.47488 0,0.0543 0.14146,0.38795 0.31436,0.7415 0.53282,1.08955 0.74989,1.88026 0.7472,2.72186 -10e-4,0.41027 -0.0191,0.53065 -0.12914,0.8742 -0.10833,0.33818 -0.28708,0.67281 -0.52631,0.9853 -0.026,0.0339 0.0151,0.0985 0.127,0.19951 0.38172,0.34469 0.32862,0.32515 0.88749,0.32669 l 0.51043,0.001 z"
       id="path1" /></g></svg>
